<?xml version="1.0" encoding="utf-8"?>
<!-- Generator: Adobe Illustrator 18.0.0, SVG Export Plug-In . SVG Version: 6.00 Build 0)  -->
<!DOCTYPE svg PUBLIC "-//W3C//DTD SVG 1.1//EN" "http://www.w3.org/Graphics/SVG/1.1/DTD/svg11.dtd">
<svg version="1.1" id="Слой_1" xmlns="http://www.w3.org/2000/svg" xmlns:xlink="http://www.w3.org/1999/xlink" x="0px" y="0px"
	 viewBox="0 0 283.5 82.9" enable-background="new 0 0 283.5 82.9" xml:space="preserve">
<g>
	<path fill-rule="evenodd" clip-rule="evenodd" d="M214.2,58.6L214.2,58.6L214.2,58.6z"/>
	<path fill-rule="evenodd" clip-rule="evenodd" d="M6.4,78.3L6.4,78.3L6.4,78.3z"/>
	<path fill-rule="evenodd" clip-rule="evenodd" d="M53.6,18.3h8.2v-4.9h13.6c1.1,0,1.9,0.6,1.9,1.6v3.3h8.5v-5.2
		c0,0-0.2-2.1-3.1-2.3v-0.5c3.1-0.7,3.1-3.2,3.1-5.6c0-4.2-4.7-4.7-8.9-4.7L53.6,0V18.3L53.6,18.3z M61.9,8.3V4.8h13.4
		c1.4,0,2.1,0.2,2.1,1.6c0,1.5-0.8,1.9-2.2,1.9H61.9L61.9,8.3z"/>
	<polygon fill-rule="evenodd" clip-rule="evenodd" points="21.1,18.3 12,5.8 10.5,4.2 10.8,6.1 10.8,18.3 2.4,18.3 2.4,0 15.7,0 
		24.1,11 32.6,0 45.9,0 45.9,18.3 37.5,18.3 37.5,6.1 37.7,4.2 36.2,5.8 27.2,18.3 21.1,18.3 	"/>
	<path fill-rule="evenodd" clip-rule="evenodd" d="M237.2,0c11.2,0,32-0.4,39.9,8.5c5.6,6.2,6.4,23.1,6.4,33c0,9.9-0.8,26.8-6.4,33
		c-7.9,8.9-28.7,8.4-39.9,8.4s-31.9,0.5-39.9-8.4c-5.6-6.2-6.4-23.1-6.4-33c0-9.9,0.8-26.8,6.4-33C205.3-0.4,226,0,237.2,0L237.2,0z
		 M237.2,21.4c5.4,0,15.7-0.5,19.6,3.9c2.7,3,2.9,11.4,2.9,16.2c0,4.8-0.2,13.2-2.9,16.2c-3.8,4.3-14.1,3.9-19.6,3.9
		s-15.7,0.5-19.6-3.9c-2.7-3-2.9-11.4-2.9-16.2s0.2-13.2,2.9-16.2C221.5,20.9,231.8,21.4,237.2,21.4L237.2,21.4z"/>
	<path fill-rule="evenodd" clip-rule="evenodd" d="M44.8,82.8c17,0,31.2,0.6,39.1-7.2c4.2-4.2,6.7-10.8,6.7-21.1
		c0-28.4-17.4-26.1-41.4-26.1c-7.8,0-18.6,0.5-25.9,5.4V21.6H2.4v28.9h21.2c0.4-1.6,0.7-3,2.1-3.8c3.8-2.1,14.1-1.8,19.6-1.8
		c5.4,0,15.7-0.2,19.6,1.8c2.7,1.4,2.9,5.4,2.9,7.7c0,2.3-0.2,6.3-2.9,7.7c-3.8,2.1-14.1,1.8-19.6,1.8c-5.4,0-15.3,0.2-19.1-1.8
		c-2-1-2.2-3.5-2.4-5.6H0v8.3c0,6.3,3.7,10,8.7,13C18.3,83.6,33.9,82.8,44.8,82.8L44.8,82.8z"/>
	<path fill-rule="evenodd" clip-rule="evenodd" d="M184.5,79.4H96.4l0.1-16.7c0-7.7-0.1-17,6.6-22.3c7.8-6.1,27.9-6.4,39.3-6.4
		c5.7,0,15.1,0.2,18.9-1.9c2.7-1.5,2.9-3.3,2.9-5.6c0-2.3-0.2-4.2-2.9-5.6c-3.8-2.1-13.3-1.9-18.7-1.9c-5.4,0-15.3-0.2-19.1,1.9
		c-2,1.1-2.2,5.7-2.4,7.8H97.4c0.1-7.5-1-18.3,5.7-23.6c7.8-6.1,27.9-5,39-5c11.1,0,29.9-0.6,37.7,5.5c5.5,4.3,5.4,14.1,5.4,20.9
		c0,6.9-1,15.7-6.8,19.6c-9.8,6.6-29.5,5.5-36.9,5.5s-15.3,0.7-19.1,2.7c-1.2,0.6-1.7,3-2,4.9l9.8-1l54.2,0L184.5,79.4L184.5,79.4z"
		/>
</g>
</svg>
